<mxfile host="app.diagrams.net" agent="Mozilla/5.0 (Windows NT 10.0; Win64; x64) AppleWebKit/537.36 (KHTML, like Gecko) Chrome/128.0.0.0 Safari/537.36" version="24.7.15">
  <diagram id="C5RBs43oDa-KdzZeNtuy" name="Page-1">
    <mxGraphModel dx="1647" dy="839" grid="1" gridSize="10" guides="1" tooltips="1" connect="1" arrows="1" fold="1" page="1" pageScale="1" pageWidth="827" pageHeight="1169" math="0" shadow="0">
      <root>
        <mxCell id="WIyWlLk6GJQsqaUBKTNV-0" />
        <mxCell id="WIyWlLk6GJQsqaUBKTNV-1" parent="WIyWlLk6GJQsqaUBKTNV-0" />
        <mxCell id="kRZLUvSVZnNpJTRoZo37-0" value="scurlock" style="rounded=0;whiteSpace=wrap;html=1;fillColor=#f8cecc;strokeColor=#b85450;" vertex="1" parent="WIyWlLk6GJQsqaUBKTNV-1">
          <mxGeometry x="354" y="10" width="120" height="30" as="geometry" />
        </mxCell>
        <mxCell id="kRZLUvSVZnNpJTRoZo37-2" value="" style="endArrow=classic;html=1;rounded=0;" edge="1" parent="WIyWlLk6GJQsqaUBKTNV-1">
          <mxGeometry width="50" height="50" relative="1" as="geometry">
            <mxPoint x="413" y="40" as="sourcePoint" />
            <mxPoint x="413" y="60" as="targetPoint" />
          </mxGeometry>
        </mxCell>
        <mxCell id="kRZLUvSVZnNpJTRoZo37-10" value="" style="edgeStyle=orthogonalEdgeStyle;rounded=0;orthogonalLoop=1;jettySize=auto;html=1;fillColor=#dae8fc;strokeColor=#000000;" edge="1" parent="WIyWlLk6GJQsqaUBKTNV-1" source="kRZLUvSVZnNpJTRoZo37-3" target="kRZLUvSVZnNpJTRoZo37-9">
          <mxGeometry relative="1" as="geometry" />
        </mxCell>
        <mxCell id="kRZLUvSVZnNpJTRoZo37-3" value="129.186.250.22" style="rounded=0;whiteSpace=wrap;html=1;fillColor=#dae8fc;strokeColor=#6c8ebf;" vertex="1" parent="WIyWlLk6GJQsqaUBKTNV-1">
          <mxGeometry x="354" y="60" width="120" height="30" as="geometry" />
        </mxCell>
        <mxCell id="kRZLUvSVZnNpJTRoZo37-12" value="" style="edgeStyle=orthogonalEdgeStyle;rounded=0;orthogonalLoop=1;jettySize=auto;html=1;fillColor=#dae8fc;strokeColor=#6c8ebf;" edge="1" parent="WIyWlLk6GJQsqaUBKTNV-1" source="kRZLUvSVZnNpJTRoZo37-9" target="kRZLUvSVZnNpJTRoZo37-11">
          <mxGeometry relative="1" as="geometry" />
        </mxCell>
        <mxCell id="kRZLUvSVZnNpJTRoZo37-9" value="129.186.250.216" style="rounded=0;whiteSpace=wrap;html=1;fillColor=#dae8fc;strokeColor=#6c8ebf;" vertex="1" parent="WIyWlLk6GJQsqaUBKTNV-1">
          <mxGeometry x="354" y="110" width="120" height="30" as="geometry" />
        </mxCell>
        <mxCell id="kRZLUvSVZnNpJTRoZo37-14" value="" style="edgeStyle=orthogonalEdgeStyle;rounded=0;orthogonalLoop=1;jettySize=auto;html=1;fillColor=#dae8fc;strokeColor=#6c8ebf;" edge="1" parent="WIyWlLk6GJQsqaUBKTNV-1" source="kRZLUvSVZnNpJTRoZo37-11" target="kRZLUvSVZnNpJTRoZo37-13">
          <mxGeometry relative="1" as="geometry" />
        </mxCell>
        <mxCell id="kRZLUvSVZnNpJTRoZo37-11" value="129.186.250.139" style="rounded=0;whiteSpace=wrap;html=1;fillColor=#dae8fc;strokeColor=#6c8ebf;" vertex="1" parent="WIyWlLk6GJQsqaUBKTNV-1">
          <mxGeometry x="354" y="160" width="120" height="30" as="geometry" />
        </mxCell>
        <mxCell id="kRZLUvSVZnNpJTRoZo37-16" value="" style="edgeStyle=orthogonalEdgeStyle;rounded=0;orthogonalLoop=1;jettySize=auto;html=1;" edge="1" parent="WIyWlLk6GJQsqaUBKTNV-1" source="kRZLUvSVZnNpJTRoZo37-13" target="kRZLUvSVZnNpJTRoZo37-15">
          <mxGeometry relative="1" as="geometry" />
        </mxCell>
        <mxCell id="kRZLUvSVZnNpJTRoZo37-18" value="" style="edgeStyle=orthogonalEdgeStyle;rounded=0;orthogonalLoop=1;jettySize=auto;html=1;fillColor=#dae8fc;strokeColor=#6c8ebf;" edge="1" parent="WIyWlLk6GJQsqaUBKTNV-1" source="kRZLUvSVZnNpJTRoZo37-13" target="kRZLUvSVZnNpJTRoZo37-17">
          <mxGeometry relative="1" as="geometry" />
        </mxCell>
        <mxCell id="kRZLUvSVZnNpJTRoZo37-13" value="129.186.250.247" style="rounded=0;whiteSpace=wrap;html=1;fillColor=#dae8fc;strokeColor=#6c8ebf;" vertex="1" parent="WIyWlLk6GJQsqaUBKTNV-1">
          <mxGeometry x="354" y="210" width="120" height="30" as="geometry" />
        </mxCell>
        <mxCell id="kRZLUvSVZnNpJTRoZo37-15" value="www.cyio.iastate.edu&lt;div&gt;129.186.250.129&lt;/div&gt;" style="rounded=0;whiteSpace=wrap;html=1;fillColor=#d5e8d4;strokeColor=#82b366;" vertex="1" parent="WIyWlLk6GJQsqaUBKTNV-1">
          <mxGeometry x="520" y="210" width="120" height="30" as="geometry" />
        </mxCell>
        <mxCell id="kRZLUvSVZnNpJTRoZo37-20" value="" style="edgeStyle=orthogonalEdgeStyle;rounded=0;orthogonalLoop=1;jettySize=auto;html=1;fillColor=#dae8fc;strokeColor=#6c8ebf;" edge="1" parent="WIyWlLk6GJQsqaUBKTNV-1" source="kRZLUvSVZnNpJTRoZo37-17" target="kRZLUvSVZnNpJTRoZo37-19">
          <mxGeometry relative="1" as="geometry" />
        </mxCell>
        <mxCell id="kRZLUvSVZnNpJTRoZo37-52" style="edgeStyle=orthogonalEdgeStyle;rounded=0;orthogonalLoop=1;jettySize=auto;html=1;exitX=0;exitY=0.5;exitDx=0;exitDy=0;entryX=0.5;entryY=0;entryDx=0;entryDy=0;" edge="1" parent="WIyWlLk6GJQsqaUBKTNV-1" source="kRZLUvSVZnNpJTRoZo37-17" target="kRZLUvSVZnNpJTRoZo37-50">
          <mxGeometry relative="1" as="geometry">
            <Array as="points">
              <mxPoint x="230" y="275" />
            </Array>
          </mxGeometry>
        </mxCell>
        <mxCell id="kRZLUvSVZnNpJTRoZo37-17" value="129.186.250.227" style="rounded=0;whiteSpace=wrap;html=1;fillColor=#dae8fc;strokeColor=#6c8ebf;" vertex="1" parent="WIyWlLk6GJQsqaUBKTNV-1">
          <mxGeometry x="354" y="260" width="120" height="30" as="geometry" />
        </mxCell>
        <mxCell id="kRZLUvSVZnNpJTRoZo37-22" value="" style="edgeStyle=orthogonalEdgeStyle;rounded=0;orthogonalLoop=1;jettySize=auto;html=1;fillColor=#dae8fc;strokeColor=#6c8ebf;" edge="1" parent="WIyWlLk6GJQsqaUBKTNV-1" source="kRZLUvSVZnNpJTRoZo37-19" target="kRZLUvSVZnNpJTRoZo37-21">
          <mxGeometry relative="1" as="geometry" />
        </mxCell>
        <mxCell id="kRZLUvSVZnNpJTRoZo37-19" value="129.186.250.89" style="rounded=0;whiteSpace=wrap;html=1;fillColor=#dae8fc;strokeColor=#6c8ebf;" vertex="1" parent="WIyWlLk6GJQsqaUBKTNV-1">
          <mxGeometry x="354" y="310" width="120" height="30" as="geometry" />
        </mxCell>
        <mxCell id="kRZLUvSVZnNpJTRoZo37-24" value="" style="edgeStyle=orthogonalEdgeStyle;rounded=0;orthogonalLoop=1;jettySize=auto;html=1;fillColor=#dae8fc;strokeColor=#6c8ebf;" edge="1" parent="WIyWlLk6GJQsqaUBKTNV-1" source="kRZLUvSVZnNpJTRoZo37-21" target="kRZLUvSVZnNpJTRoZo37-23">
          <mxGeometry relative="1" as="geometry" />
        </mxCell>
        <mxCell id="kRZLUvSVZnNpJTRoZo37-21" value="129.186.250.170" style="rounded=0;whiteSpace=wrap;html=1;fillColor=#dae8fc;strokeColor=#6c8ebf;" vertex="1" parent="WIyWlLk6GJQsqaUBKTNV-1">
          <mxGeometry x="354" y="360" width="120" height="30" as="geometry" />
        </mxCell>
        <mxCell id="kRZLUvSVZnNpJTRoZo37-26" value="" style="edgeStyle=orthogonalEdgeStyle;rounded=0;orthogonalLoop=1;jettySize=auto;html=1;fillColor=#dae8fc;strokeColor=#6c8ebf;" edge="1" parent="WIyWlLk6GJQsqaUBKTNV-1" source="kRZLUvSVZnNpJTRoZo37-23" target="kRZLUvSVZnNpJTRoZo37-25">
          <mxGeometry relative="1" as="geometry" />
        </mxCell>
        <mxCell id="kRZLUvSVZnNpJTRoZo37-23" value="129.186.250.159" style="rounded=0;whiteSpace=wrap;html=1;fillColor=#dae8fc;strokeColor=#6c8ebf;" vertex="1" parent="WIyWlLk6GJQsqaUBKTNV-1">
          <mxGeometry x="354" y="410" width="120" height="30" as="geometry" />
        </mxCell>
        <mxCell id="kRZLUvSVZnNpJTRoZo37-28" value="" style="edgeStyle=orthogonalEdgeStyle;rounded=0;orthogonalLoop=1;jettySize=auto;html=1;fillColor=#dae8fc;strokeColor=#6c8ebf;" edge="1" parent="WIyWlLk6GJQsqaUBKTNV-1" source="kRZLUvSVZnNpJTRoZo37-25" target="kRZLUvSVZnNpJTRoZo37-27">
          <mxGeometry relative="1" as="geometry" />
        </mxCell>
        <mxCell id="kRZLUvSVZnNpJTRoZo37-25" value="213.112.42.101" style="rounded=0;whiteSpace=wrap;html=1;fillColor=#dae8fc;strokeColor=#6c8ebf;" vertex="1" parent="WIyWlLk6GJQsqaUBKTNV-1">
          <mxGeometry x="354" y="460" width="120" height="30" as="geometry" />
        </mxCell>
        <mxCell id="kRZLUvSVZnNpJTRoZo37-30" value="" style="edgeStyle=orthogonalEdgeStyle;rounded=0;orthogonalLoop=1;jettySize=auto;html=1;fillColor=#dae8fc;strokeColor=#6c8ebf;" edge="1" parent="WIyWlLk6GJQsqaUBKTNV-1" source="kRZLUvSVZnNpJTRoZo37-27" target="kRZLUvSVZnNpJTRoZo37-29">
          <mxGeometry relative="1" as="geometry" />
        </mxCell>
        <mxCell id="kRZLUvSVZnNpJTRoZo37-64" value="" style="edgeStyle=orthogonalEdgeStyle;rounded=0;orthogonalLoop=1;jettySize=auto;html=1;" edge="1" parent="WIyWlLk6GJQsqaUBKTNV-1" source="kRZLUvSVZnNpJTRoZo37-27" target="kRZLUvSVZnNpJTRoZo37-63">
          <mxGeometry relative="1" as="geometry" />
        </mxCell>
        <mxCell id="kRZLUvSVZnNpJTRoZo37-27" value="213.112.42.200" style="rounded=0;whiteSpace=wrap;html=1;fillColor=#dae8fc;strokeColor=#6c8ebf;" vertex="1" parent="WIyWlLk6GJQsqaUBKTNV-1">
          <mxGeometry x="354" y="510" width="120" height="30" as="geometry" />
        </mxCell>
        <mxCell id="kRZLUvSVZnNpJTRoZo37-32" value="" style="edgeStyle=orthogonalEdgeStyle;rounded=0;orthogonalLoop=1;jettySize=auto;html=1;fillColor=#dae8fc;strokeColor=#6c8ebf;" edge="1" parent="WIyWlLk6GJQsqaUBKTNV-1" source="kRZLUvSVZnNpJTRoZo37-29" target="kRZLUvSVZnNpJTRoZo37-31">
          <mxGeometry relative="1" as="geometry" />
        </mxCell>
        <mxCell id="kRZLUvSVZnNpJTRoZo37-55" value="" style="edgeStyle=orthogonalEdgeStyle;rounded=0;orthogonalLoop=1;jettySize=auto;html=1;" edge="1" parent="WIyWlLk6GJQsqaUBKTNV-1" source="kRZLUvSVZnNpJTRoZo37-29" target="kRZLUvSVZnNpJTRoZo37-54">
          <mxGeometry relative="1" as="geometry" />
        </mxCell>
        <mxCell id="kRZLUvSVZnNpJTRoZo37-29" value="128.85.12.26" style="rounded=0;whiteSpace=wrap;html=1;fillColor=#dae8fc;strokeColor=#6c8ebf;" vertex="1" parent="WIyWlLk6GJQsqaUBKTNV-1">
          <mxGeometry x="354" y="555" width="120" height="30" as="geometry" />
        </mxCell>
        <mxCell id="kRZLUvSVZnNpJTRoZo37-34" value="" style="edgeStyle=orthogonalEdgeStyle;rounded=0;orthogonalLoop=1;jettySize=auto;html=1;fillColor=#dae8fc;strokeColor=#6c8ebf;" edge="1" parent="WIyWlLk6GJQsqaUBKTNV-1" source="kRZLUvSVZnNpJTRoZo37-31" target="kRZLUvSVZnNpJTRoZo37-33">
          <mxGeometry relative="1" as="geometry" />
        </mxCell>
        <mxCell id="kRZLUvSVZnNpJTRoZo37-31" value="128.85.12.26" style="rounded=0;whiteSpace=wrap;html=1;fillColor=#dae8fc;strokeColor=#6c8ebf;" vertex="1" parent="WIyWlLk6GJQsqaUBKTNV-1">
          <mxGeometry x="354" y="600" width="120" height="30" as="geometry" />
        </mxCell>
        <mxCell id="kRZLUvSVZnNpJTRoZo37-36" value="" style="edgeStyle=orthogonalEdgeStyle;rounded=0;orthogonalLoop=1;jettySize=auto;html=1;fillColor=#dae8fc;strokeColor=#6c8ebf;" edge="1" parent="WIyWlLk6GJQsqaUBKTNV-1" source="kRZLUvSVZnNpJTRoZo37-33" target="kRZLUvSVZnNpJTRoZo37-35">
          <mxGeometry relative="1" as="geometry" />
        </mxCell>
        <mxCell id="kRZLUvSVZnNpJTRoZo37-33" value="128.112.52.84" style="rounded=0;whiteSpace=wrap;html=1;fillColor=#dae8fc;strokeColor=#6c8ebf;" vertex="1" parent="WIyWlLk6GJQsqaUBKTNV-1">
          <mxGeometry x="354" y="650" width="120" height="30" as="geometry" />
        </mxCell>
        <mxCell id="kRZLUvSVZnNpJTRoZo37-38" value="" style="edgeStyle=orthogonalEdgeStyle;rounded=0;orthogonalLoop=1;jettySize=auto;html=1;fillColor=#dae8fc;strokeColor=#6c8ebf;" edge="1" parent="WIyWlLk6GJQsqaUBKTNV-1" source="kRZLUvSVZnNpJTRoZo37-35" target="kRZLUvSVZnNpJTRoZo37-37">
          <mxGeometry relative="1" as="geometry" />
        </mxCell>
        <mxCell id="kRZLUvSVZnNpJTRoZo37-35" value="128.91.67.11" style="rounded=0;whiteSpace=wrap;html=1;fillColor=#dae8fc;strokeColor=#6c8ebf;" vertex="1" parent="WIyWlLk6GJQsqaUBKTNV-1">
          <mxGeometry x="354" y="700" width="120" height="30" as="geometry" />
        </mxCell>
        <mxCell id="kRZLUvSVZnNpJTRoZo37-40" value="" style="edgeStyle=orthogonalEdgeStyle;rounded=0;orthogonalLoop=1;jettySize=auto;html=1;fillColor=#dae8fc;strokeColor=#6c8ebf;" edge="1" parent="WIyWlLk6GJQsqaUBKTNV-1" source="kRZLUvSVZnNpJTRoZo37-37" target="kRZLUvSVZnNpJTRoZo37-39">
          <mxGeometry relative="1" as="geometry" />
        </mxCell>
        <mxCell id="kRZLUvSVZnNpJTRoZo37-58" value="" style="edgeStyle=orthogonalEdgeStyle;rounded=0;orthogonalLoop=1;jettySize=auto;html=1;" edge="1" parent="WIyWlLk6GJQsqaUBKTNV-1" source="kRZLUvSVZnNpJTRoZo37-37" target="kRZLUvSVZnNpJTRoZo37-57">
          <mxGeometry relative="1" as="geometry" />
        </mxCell>
        <mxCell id="kRZLUvSVZnNpJTRoZo37-37" value="128.112.83.27" style="rounded=0;whiteSpace=wrap;html=1;fillColor=#dae8fc;strokeColor=#6c8ebf;" vertex="1" parent="WIyWlLk6GJQsqaUBKTNV-1">
          <mxGeometry x="354" y="750" width="120" height="30" as="geometry" />
        </mxCell>
        <mxCell id="kRZLUvSVZnNpJTRoZo37-42" value="" style="edgeStyle=orthogonalEdgeStyle;rounded=0;orthogonalLoop=1;jettySize=auto;html=1;fillColor=#dae8fc;strokeColor=#6c8ebf;" edge="1" parent="WIyWlLk6GJQsqaUBKTNV-1" source="kRZLUvSVZnNpJTRoZo37-39" target="kRZLUvSVZnNpJTRoZo37-41">
          <mxGeometry relative="1" as="geometry" />
        </mxCell>
        <mxCell id="kRZLUvSVZnNpJTRoZo37-39" value="128.83.129.35" style="rounded=0;whiteSpace=wrap;html=1;fillColor=#dae8fc;strokeColor=#6c8ebf;" vertex="1" parent="WIyWlLk6GJQsqaUBKTNV-1">
          <mxGeometry x="354" y="800" width="120" height="30" as="geometry" />
        </mxCell>
        <mxCell id="kRZLUvSVZnNpJTRoZo37-44" value="" style="edgeStyle=orthogonalEdgeStyle;rounded=0;orthogonalLoop=1;jettySize=auto;html=1;fillColor=#dae8fc;strokeColor=#6c8ebf;" edge="1" parent="WIyWlLk6GJQsqaUBKTNV-1" source="kRZLUvSVZnNpJTRoZo37-41" target="kRZLUvSVZnNpJTRoZo37-43">
          <mxGeometry relative="1" as="geometry" />
        </mxCell>
        <mxCell id="kRZLUvSVZnNpJTRoZo37-41" value="128.92.1.13" style="rounded=0;whiteSpace=wrap;html=1;fillColor=#dae8fc;strokeColor=#6c8ebf;" vertex="1" parent="WIyWlLk6GJQsqaUBKTNV-1">
          <mxGeometry x="354" y="850" width="120" height="30" as="geometry" />
        </mxCell>
        <mxCell id="kRZLUvSVZnNpJTRoZo37-46" value="" style="edgeStyle=orthogonalEdgeStyle;rounded=0;orthogonalLoop=1;jettySize=auto;html=1;" edge="1" parent="WIyWlLk6GJQsqaUBKTNV-1" source="kRZLUvSVZnNpJTRoZo37-43" target="kRZLUvSVZnNpJTRoZo37-45">
          <mxGeometry relative="1" as="geometry" />
        </mxCell>
        <mxCell id="kRZLUvSVZnNpJTRoZo37-43" value="110.15.10.210" style="rounded=0;whiteSpace=wrap;html=1;fillColor=#dae8fc;strokeColor=#6c8ebf;" vertex="1" parent="WIyWlLk6GJQsqaUBKTNV-1">
          <mxGeometry x="354" y="900" width="120" height="30" as="geometry" />
        </mxCell>
        <mxCell id="kRZLUvSVZnNpJTRoZo37-45" value="www.mozilla.org&lt;div&gt;44.236.72.93&lt;/div&gt;" style="rounded=0;whiteSpace=wrap;html=1;fillColor=#d5e8d4;strokeColor=#82b366;" vertex="1" parent="WIyWlLk6GJQsqaUBKTNV-1">
          <mxGeometry x="520" y="900" width="120" height="30" as="geometry" />
        </mxCell>
        <mxCell id="kRZLUvSVZnNpJTRoZo37-53" style="edgeStyle=orthogonalEdgeStyle;rounded=0;orthogonalLoop=1;jettySize=auto;html=1;entryX=0;entryY=0.5;entryDx=0;entryDy=0;exitX=0.5;exitY=1;exitDx=0;exitDy=0;" edge="1" parent="WIyWlLk6GJQsqaUBKTNV-1" source="kRZLUvSVZnNpJTRoZo37-50" target="kRZLUvSVZnNpJTRoZo37-23">
          <mxGeometry relative="1" as="geometry" />
        </mxCell>
        <mxCell id="kRZLUvSVZnNpJTRoZo37-79" style="edgeStyle=orthogonalEdgeStyle;rounded=0;orthogonalLoop=1;jettySize=auto;html=1;exitX=0.75;exitY=1;exitDx=0;exitDy=0;entryX=0;entryY=0.5;entryDx=0;entryDy=0;" edge="1" parent="WIyWlLk6GJQsqaUBKTNV-1" source="kRZLUvSVZnNpJTRoZo37-50" target="kRZLUvSVZnNpJTRoZo37-21">
          <mxGeometry relative="1" as="geometry">
            <Array as="points">
              <mxPoint x="260" y="375" />
            </Array>
          </mxGeometry>
        </mxCell>
        <mxCell id="kRZLUvSVZnNpJTRoZo37-50" value="129.186.250.132" style="rounded=0;whiteSpace=wrap;html=1;fillColor=#dae8fc;strokeColor=#6c8ebf;" vertex="1" parent="WIyWlLk6GJQsqaUBKTNV-1">
          <mxGeometry x="170" y="330" width="120" height="30" as="geometry" />
        </mxCell>
        <mxCell id="kRZLUvSVZnNpJTRoZo37-56" style="edgeStyle=orthogonalEdgeStyle;rounded=0;orthogonalLoop=1;jettySize=auto;html=1;entryX=0;entryY=0.5;entryDx=0;entryDy=0;exitX=0.5;exitY=1;exitDx=0;exitDy=0;" edge="1" parent="WIyWlLk6GJQsqaUBKTNV-1" source="kRZLUvSVZnNpJTRoZo37-54" target="kRZLUvSVZnNpJTRoZo37-35">
          <mxGeometry relative="1" as="geometry" />
        </mxCell>
        <mxCell id="kRZLUvSVZnNpJTRoZo37-54" value="128.112.52.84" style="rounded=0;whiteSpace=wrap;html=1;fillColor=#dae8fc;strokeColor=#6c8ebf;" vertex="1" parent="WIyWlLk6GJQsqaUBKTNV-1">
          <mxGeometry x="160" y="630" width="120" height="30" as="geometry" />
        </mxCell>
        <mxCell id="kRZLUvSVZnNpJTRoZo37-60" value="" style="edgeStyle=orthogonalEdgeStyle;rounded=0;orthogonalLoop=1;jettySize=auto;html=1;fillColor=#dae8fc;strokeColor=#6c8ebf;" edge="1" parent="WIyWlLk6GJQsqaUBKTNV-1" source="kRZLUvSVZnNpJTRoZo37-57" target="kRZLUvSVZnNpJTRoZo37-59">
          <mxGeometry relative="1" as="geometry" />
        </mxCell>
        <mxCell id="kRZLUvSVZnNpJTRoZo37-57" value="128.37.192.52" style="rounded=0;whiteSpace=wrap;html=1;fillColor=#dae8fc;strokeColor=#6c8ebf;" vertex="1" parent="WIyWlLk6GJQsqaUBKTNV-1">
          <mxGeometry x="160" y="750" width="120" height="30" as="geometry" />
        </mxCell>
        <mxCell id="kRZLUvSVZnNpJTRoZo37-62" value="" style="edgeStyle=orthogonalEdgeStyle;rounded=0;orthogonalLoop=1;jettySize=auto;html=1;" edge="1" parent="WIyWlLk6GJQsqaUBKTNV-1" source="kRZLUvSVZnNpJTRoZo37-59" target="kRZLUvSVZnNpJTRoZo37-61">
          <mxGeometry relative="1" as="geometry" />
        </mxCell>
        <mxCell id="kRZLUvSVZnNpJTRoZo37-82" value="" style="edgeStyle=orthogonalEdgeStyle;rounded=0;orthogonalLoop=1;jettySize=auto;html=1;" edge="1" parent="WIyWlLk6GJQsqaUBKTNV-1" source="kRZLUvSVZnNpJTRoZo37-59" target="kRZLUvSVZnNpJTRoZo37-81">
          <mxGeometry relative="1" as="geometry" />
        </mxCell>
        <mxCell id="kRZLUvSVZnNpJTRoZo37-59" value="117.187.177.22" style="rounded=0;whiteSpace=wrap;html=1;fillColor=#dae8fc;strokeColor=#6c8ebf;" vertex="1" parent="WIyWlLk6GJQsqaUBKTNV-1">
          <mxGeometry x="160" y="800" width="120" height="30" as="geometry" />
        </mxCell>
        <mxCell id="kRZLUvSVZnNpJTRoZo37-61" value="www.grubhub.com&lt;div&gt;151.101.1.160&lt;/div&gt;" style="rounded=0;whiteSpace=wrap;html=1;fillColor=#d5e8d4;strokeColor=#82b366;" vertex="1" parent="WIyWlLk6GJQsqaUBKTNV-1">
          <mxGeometry x="160" y="850" width="120" height="30" as="geometry" />
        </mxCell>
        <mxCell id="kRZLUvSVZnNpJTRoZo37-66" value="" style="edgeStyle=orthogonalEdgeStyle;rounded=0;orthogonalLoop=1;jettySize=auto;html=1;fillColor=#dae8fc;strokeColor=#6c8ebf;" edge="1" parent="WIyWlLk6GJQsqaUBKTNV-1" source="kRZLUvSVZnNpJTRoZo37-63" target="kRZLUvSVZnNpJTRoZo37-65">
          <mxGeometry relative="1" as="geometry" />
        </mxCell>
        <mxCell id="kRZLUvSVZnNpJTRoZo37-80" style="edgeStyle=orthogonalEdgeStyle;rounded=0;orthogonalLoop=1;jettySize=auto;html=1;exitX=0.25;exitY=1;exitDx=0;exitDy=0;entryX=1;entryY=0.5;entryDx=0;entryDy=0;" edge="1" parent="WIyWlLk6GJQsqaUBKTNV-1" source="kRZLUvSVZnNpJTRoZo37-63" target="kRZLUvSVZnNpJTRoZo37-33">
          <mxGeometry relative="1" as="geometry">
            <Array as="points">
              <mxPoint x="584" y="550" />
              <mxPoint x="540" y="550" />
              <mxPoint x="540" y="665" />
            </Array>
          </mxGeometry>
        </mxCell>
        <mxCell id="kRZLUvSVZnNpJTRoZo37-63" value="128.142.42.101" style="rounded=0;whiteSpace=wrap;html=1;fillColor=#dae8fc;strokeColor=#6c8ebf;" vertex="1" parent="WIyWlLk6GJQsqaUBKTNV-1">
          <mxGeometry x="554" y="510" width="120" height="30" as="geometry" />
        </mxCell>
        <mxCell id="kRZLUvSVZnNpJTRoZo37-68" value="" style="edgeStyle=orthogonalEdgeStyle;rounded=0;orthogonalLoop=1;jettySize=auto;html=1;fillColor=#dae8fc;strokeColor=#6c8ebf;" edge="1" parent="WIyWlLk6GJQsqaUBKTNV-1" source="kRZLUvSVZnNpJTRoZo37-65" target="kRZLUvSVZnNpJTRoZo37-67">
          <mxGeometry relative="1" as="geometry" />
        </mxCell>
        <mxCell id="kRZLUvSVZnNpJTRoZo37-65" value="128.153.24.62" style="rounded=0;whiteSpace=wrap;html=1;fillColor=#dae8fc;strokeColor=#6c8ebf;" vertex="1" parent="WIyWlLk6GJQsqaUBKTNV-1">
          <mxGeometry x="554" y="560" width="120" height="30" as="geometry" />
        </mxCell>
        <mxCell id="kRZLUvSVZnNpJTRoZo37-70" value="" style="edgeStyle=orthogonalEdgeStyle;rounded=0;orthogonalLoop=1;jettySize=auto;html=1;fillColor=#dae8fc;strokeColor=#6c8ebf;" edge="1" parent="WIyWlLk6GJQsqaUBKTNV-1" source="kRZLUvSVZnNpJTRoZo37-67" target="kRZLUvSVZnNpJTRoZo37-69">
          <mxGeometry relative="1" as="geometry" />
        </mxCell>
        <mxCell id="kRZLUvSVZnNpJTRoZo37-67" value="128.251.63.26" style="rounded=0;whiteSpace=wrap;html=1;fillColor=#dae8fc;strokeColor=#6c8ebf;" vertex="1" parent="WIyWlLk6GJQsqaUBKTNV-1">
          <mxGeometry x="554" y="610" width="120" height="30" as="geometry" />
        </mxCell>
        <mxCell id="kRZLUvSVZnNpJTRoZo37-72" value="" style="edgeStyle=orthogonalEdgeStyle;rounded=0;orthogonalLoop=1;jettySize=auto;html=1;fillColor=#dae8fc;strokeColor=#6c8ebf;" edge="1" parent="WIyWlLk6GJQsqaUBKTNV-1" source="kRZLUvSVZnNpJTRoZo37-69" target="kRZLUvSVZnNpJTRoZo37-71">
          <mxGeometry relative="1" as="geometry" />
        </mxCell>
        <mxCell id="kRZLUvSVZnNpJTRoZo37-69" value="128.127.42.53" style="rounded=0;whiteSpace=wrap;html=1;fillColor=#dae8fc;strokeColor=#6c8ebf;" vertex="1" parent="WIyWlLk6GJQsqaUBKTNV-1">
          <mxGeometry x="554" y="660" width="120" height="30" as="geometry" />
        </mxCell>
        <mxCell id="kRZLUvSVZnNpJTRoZo37-74" value="" style="edgeStyle=orthogonalEdgeStyle;rounded=0;orthogonalLoop=1;jettySize=auto;html=1;fillColor=#dae8fc;strokeColor=#6c8ebf;" edge="1" parent="WIyWlLk6GJQsqaUBKTNV-1" source="kRZLUvSVZnNpJTRoZo37-71" target="kRZLUvSVZnNpJTRoZo37-73">
          <mxGeometry relative="1" as="geometry" />
        </mxCell>
        <mxCell id="kRZLUvSVZnNpJTRoZo37-71" value="128.127.42.53" style="rounded=0;whiteSpace=wrap;html=1;fillColor=#dae8fc;strokeColor=#6c8ebf;" vertex="1" parent="WIyWlLk6GJQsqaUBKTNV-1">
          <mxGeometry x="554" y="710" width="120" height="30" as="geometry" />
        </mxCell>
        <mxCell id="kRZLUvSVZnNpJTRoZo37-78" value="" style="edgeStyle=orthogonalEdgeStyle;rounded=0;orthogonalLoop=1;jettySize=auto;html=1;" edge="1" parent="WIyWlLk6GJQsqaUBKTNV-1" source="kRZLUvSVZnNpJTRoZo37-73" target="kRZLUvSVZnNpJTRoZo37-77">
          <mxGeometry relative="1" as="geometry" />
        </mxCell>
        <mxCell id="kRZLUvSVZnNpJTRoZo37-73" value="128.112.173.22" style="rounded=0;whiteSpace=wrap;html=1;fillColor=#dae8fc;strokeColor=#6c8ebf;" vertex="1" parent="WIyWlLk6GJQsqaUBKTNV-1">
          <mxGeometry x="554" y="760" width="120" height="30" as="geometry" />
        </mxCell>
        <mxCell id="kRZLUvSVZnNpJTRoZo37-77" value="www.nsa.gov&lt;div&gt;23.192.77.232&lt;/div&gt;" style="rounded=0;whiteSpace=wrap;html=1;fillColor=#d5e8d4;strokeColor=#82b366;" vertex="1" parent="WIyWlLk6GJQsqaUBKTNV-1">
          <mxGeometry x="554" y="810" width="120" height="30" as="geometry" />
        </mxCell>
        <mxCell id="kRZLUvSVZnNpJTRoZo37-81" value="www.reddit.com&lt;div&gt;151.101.1.140&lt;/div&gt;" style="rounded=0;whiteSpace=wrap;html=1;fillColor=#d5e8d4;strokeColor=#82b366;" vertex="1" parent="WIyWlLk6GJQsqaUBKTNV-1">
          <mxGeometry y="850" width="120" height="30" as="geometry" />
        </mxCell>
      </root>
    </mxGraphModel>
  </diagram>
</mxfile>
